<svg xmlns="http://www.w3.org/2000/svg" width="175" height="175" viewBox="0 0 175 175"><defs><style>.a{fill:#e5341e;}.b{fill:#fff;}</style></defs><g transform="translate(-591 -906)"><g transform="translate(609.257 953.055)"><g transform="translate(0 0)"><path class="b" d="M326.715,162.394a2.355,2.355,0,0,0,.484-1.384,2.436,2.436,0,0,0-2.436-2.482H252.856a12.329,12.329,0,0,1-9.57-5.127,17.879,17.879,0,0,1-2.62-4.878,3.109,3.109,0,0,1-.111-.418l-9.18-47.783c-.59-3.733-2.1-6.486-4.489-8.182a9.62,9.62,0,0,0-6.623-1.66h-8.833a2.436,2.436,0,0,0-2.436,2.482,2.489,2.489,0,0,0,2.516,2.39h8.929a1.865,1.865,0,0,0,.423-.037,4.947,4.947,0,0,1,2.528.406c1.671.773,2.74,2.588,3.178,5.394,0,.028.009.056.014.084l9.247,48.132q.018.095.044.187A22.086,22.086,0,0,0,239.3,156.2a17.29,17.29,0,0,0,11.147,6.958,8.829,8.829,0,1,0,13.462.24h50.109a8.83,8.83,0,1,0,12.7-1.006Zm-69.644,10.549a3.958,3.958,0,1,1,3.958-3.958A3.962,3.962,0,0,1,257.071,172.942Zm63.777,0a3.958,3.958,0,1,1,3.958-3.958A3.962,3.962,0,0,1,320.848,172.942Z" transform="translate(-208.993 -85.452)"/><path class="b" d="M432.55,101.826a2.325,2.325,0,0,1-1.38-.453L394.057,73.525a1.913,1.913,0,0,0-2.219-.057c-16.236,10.955-39.409,27.238-40.81,28.275a2.363,2.363,0,0,1-3.776-1.23,2.191,2.191,0,0,1,.635-2.216c.237-.23,1.2-1.643,22.723-16.159,10.464-7.057,21.008-14.149,21.113-14.22a2.334,2.334,0,0,1,2.684.055L433.934,97.61a2.335,2.335,0,0,1-1.384,4.216Zm-81.359-.23h0Zm0,0,0,0Z" transform="translate(-317.216 -67.52)"/><path class="b" d="M462.846,180.651a1.786,1.786,0,0,0-1.325-.6.878.878,0,1,0,0,1.735,1.786,1.786,0,0,0,1.325-.6Zm-.284,17.892a1.6,1.6,0,0,0-1.188-.54.787.787,0,1,0,0,1.555,1.6,1.6,0,0,0,1.188-.54Zm-5.807-6.649a.339.339,0,0,1,.108-.41,9.058,9.058,0,0,1,4.685-1.23c3.735,0,5.462,1.964,5.462,6.261v5.591a.332.332,0,0,1-.324.324h-2.72a.352.352,0,0,1-.345-.324l-.151-.583a5.285,5.285,0,0,1-3.714,1.231,3.8,3.8,0,0,1-4.1-3.972c.021-2.115,1.662-3.519,4.1-3.519a3.359,3.359,0,0,1,2.807,1.144V195.5a1.511,1.511,0,0,0-1.662-1.533,5.656,5.656,0,0,0-2.591.691c-.108.065-.237-.021-.324-.173Zm-.389-18.664a.378.378,0,0,1,.121-.458,10.108,10.108,0,0,1,5.228-1.373c4.168,0,6.1,2.192,6.1,6.987v6.24a.371.371,0,0,1-.362.361h-3.036a.392.392,0,0,1-.385-.361l-.169-.651a5.9,5.9,0,0,1-4.144,1.373,4.238,4.238,0,0,1-4.578-4.433c.024-2.361,1.855-3.927,4.578-3.927a3.749,3.749,0,0,1,3.132,1.277v-1.012a1.686,1.686,0,0,0-1.855-1.711,6.312,6.312,0,0,0-2.891.771c-.121.072-.265-.024-.361-.193Zm-9.735,25.443a.179.179,0,0,1,.281-.086,5.416,5.416,0,0,0,2.483.885c.453.043.756-.216.756-.54,0-1.1-4.728-.755-4.728-4.814,0-2.31,1.964-3.864,4.9-3.864a8.475,8.475,0,0,1,4.231,1.23c.108.086.173.194.13.3l-1.1,2.547a.179.179,0,0,1-.281.086,4.963,4.963,0,0,0-2.483-.885c-.453-.043-.756.173-.756.518,0,1.144,4.728.734,4.728,4.836,0,2.31-1.9,3.864-4.771,3.864a9.159,9.159,0,0,1-4.361-1.231.332.332,0,0,1-.129-.345Zm2.194-21.8a2.032,2.032,0,0,0-1.9-1.325c-1.325,0-2.217,1.108-2.217,2.795,0,1.735.891,2.891,2.217,2.891a2.032,2.032,0,0,0,1.9-1.325Zm4.6-9.348a.367.367,0,0,1,.361.337v16.769a.37.37,0,0,1-.361.361H450.7c-.169,0-.289-.145-.385-.361l-.362-.867a5.731,5.731,0,0,1-4.072,1.59c-3.807,0-6.36-2.795-6.36-6.987,0-4.168,2.554-6.963,6.36-6.963a4.8,4.8,0,0,1,2.939.915v-4.457a.367.367,0,0,1,.362-.337Zm-13.661,31.023a1.6,1.6,0,0,0-1.187-.54.787.787,0,1,0,0,1.555,1.6,1.6,0,0,0,1.187-.54Zm-5.807-6.649a.339.339,0,0,1,.108-.41,9.058,9.058,0,0,1,4.685-1.23c3.735,0,5.462,1.964,5.462,6.261v5.591a.332.332,0,0,1-.324.324h-2.72a.352.352,0,0,1-.346-.324l-.151-.583a5.285,5.285,0,0,1-3.714,1.231,3.8,3.8,0,0,1-4.1-3.972c.021-2.115,1.662-3.519,4.1-3.519a3.359,3.359,0,0,1,2.807,1.144V195.5a1.511,1.511,0,0,0-1.662-1.533,5.656,5.656,0,0,0-2.591.691c-.108.065-.237-.021-.324-.173Zm6-35.966a.352.352,0,0,1,.343.343v11.9a.348.348,0,0,1-.343.32h-2.582c-.183,0-.3-.16-.366-.343l-.343-.822a4.946,4.946,0,0,1-3.656,1.508c-2.97,0-4.73-1.9-4.73-5v-7.563a.352.352,0,0,1,.343-.343h4.021a.352.352,0,0,1,.343.343v6.992a1.189,1.189,0,0,0,1.211,1.3,1.815,1.815,0,0,0,1.394-.731v-7.563a.352.352,0,0,1,.343-.343Zm-10.579,16.82a5.647,5.647,0,0,1,3.879-1.349c3.277,0,5.06,1.518,5.06,5.276v7.951a.371.371,0,0,1-.362.361h-4.24a.335.335,0,0,1-.337-.361v-7.2c0-.964-.434-1.518-1.18-1.518a1.615,1.615,0,0,0-1.59,1.349v7.372a.37.37,0,0,1-.361.361h-4.24a.37.37,0,0,1-.361-.361V172.074a.3.3,0,0,1,.337-.337h2.7a.391.391,0,0,1,.385.241Zm2.591,28.364c.065.151-.022.3-.194.388a8.921,8.921,0,0,1-4.534,1.252c-4.447,0-7.426-3.109-7.426-7.772s2.979-7.772,7.426-7.772a8.921,8.921,0,0,1,4.534,1.252c.173.086.259.238.194.389l-1.425,3a.281.281,0,0,1-.41.173,4.783,4.783,0,0,0-2.5-.6c-1.943,0-3.238,1.425-3.238,3.562s1.3,3.562,3.238,3.562a4.783,4.783,0,0,0,2.5-.6.281.281,0,0,1,.41.173Zm-28.587-32.749a.315.315,0,0,1,.337.337l-.361,3.662a.409.409,0,0,1-.386.337h-3.59v11.95a.345.345,0,0,1-.337.337h-4.264a.367.367,0,0,1-.361-.337V172.7h-4a.345.345,0,0,1-.337-.337v-3.638a.367.367,0,0,1,.337-.361Zm6.36.554a2.665,2.665,0,0,1-5.3,0,2.656,2.656,0,0,1,5.3,0Zm-.506,2.819a.367.367,0,0,1,.361.337v12.552a.37.37,0,0,1-.361.361H405a.371.371,0,0,1-.361-.361V172.074a.367.367,0,0,1,.361-.337Zm13.974,11.9c.048.169,0,.265-.169.362a9.381,9.381,0,0,1-4.987,1.349c-4.264,0-7.107-2.795-7.107-6.963a6.6,6.6,0,0,1,6.987-6.987c4,0,6.361,2.578,6.361,6.963a5.484,5.484,0,0,1-.1,1.084.314.314,0,0,1-.361.289h-7.734s0,1.518,2.024,1.518a9.125,9.125,0,0,0,3.686-.8.258.258,0,0,1,.361.193Zm-3.71-6.433a1.6,1.6,0,0,0-1.614-1.759,1.682,1.682,0,0,0-1.807,1.759ZM402.4,201.221c.043.151,0,.238-.151.324a8.4,8.4,0,0,1-4.469,1.209c-3.821,0-6.369-2.5-6.369-6.239a5.915,5.915,0,0,1,6.261-6.261c3.584,0,5.7,2.31,5.7,6.239a4.924,4.924,0,0,1-.086.971.281.281,0,0,1-.324.259h-6.93s0,1.36,1.813,1.36a8.176,8.176,0,0,0,3.3-.713.231.231,0,0,1,.324.173Zm-3.325-5.764a1.431,1.431,0,0,0-1.446-1.576,1.507,1.507,0,0,0-1.619,1.576Zm8.851-3.994a5.061,5.061,0,0,1,3.476-1.209c2.936,0,4.534,1.36,4.534,4.728v7.124a.332.332,0,0,1-.324.324h-3.8a.3.3,0,0,1-.3-.324v-6.455c0-.863-.388-1.36-1.058-1.36a1.447,1.447,0,0,0-1.425,1.209v6.606a.332.332,0,0,1-.324.324h-3.8a.332.332,0,0,1-.324-.324V190.858a.273.273,0,0,1,.3-.3H407.3a.35.35,0,0,1,.345.216Zm19.356-38.733a.3.3,0,0,1,.32.32l-.343,3.473a.388.388,0,0,1-.366.32h-3.4v11.333a.327.327,0,0,1-.32.32H419.12a.348.348,0,0,1-.343-.32V156.843h-3.793a.327.327,0,0,1-.32-.32v-3.45a.348.348,0,0,1,.32-.343Z" transform="translate(-350.837 -134.263)"/></g></g></g></svg>